<svg width="47" height="48" viewBox="0 0 47 48" fill="none" xmlns="http://www.w3.org/2000/svg">
<g clip-path="url(#clip0_2250_62547)">
<path d="M1.0016 23.7126C1.0005 27.7455 2.04037 31.6834 4.01768 35.1543L0.8125 47.0132L12.7887 43.8311C16.1012 45.6584 19.8125 46.6159 23.584 46.6162H23.5939C36.0443 46.6162 46.1792 36.3496 46.1846 23.7306C46.187 17.6158 43.8392 11.8659 39.5735 7.53994C35.3087 3.21436 29.6365 0.830916 23.593 0.828125C11.1411 0.828125 1.00693 11.0942 1.00179 23.7126" fill="url(#paint0_linear_2250_62547)"/>
<path d="M0.196445 23.7053C0.19516 27.8833 1.2723 31.962 3.32011 35.5572L0 47.8413L12.4056 44.5451C15.8238 46.4337 19.6723 47.4294 23.5883 47.4309H23.5984C36.4955 47.4309 46.9945 36.795 47 23.7243C47.0022 17.3898 44.57 11.4331 40.152 6.95219C35.7334 2.47181 29.8584 0.00260465 23.5984 0C10.6991 0 0.201586 10.6344 0.196445 23.7053ZM7.58444 34.938L7.12123 34.1929C5.17404 31.0554 4.14628 27.4298 4.14775 23.7068C4.15179 12.8426 12.8769 4.00372 23.6058 4.00372C28.8015 4.00595 33.6843 6.05842 37.3569 9.78233C41.0293 13.5066 43.0502 18.4573 43.0489 23.7228C43.0441 34.587 34.3188 43.427 23.5984 43.427H23.5907C20.1 43.4251 16.6766 42.4752 13.691 40.68L12.9804 40.253L5.6187 42.2089L7.58444 34.938Z" fill="url(#paint1_linear_2250_62547)"/>
<path d="M17.7491 13.7954C17.311 12.8088 16.85 12.7889 16.4335 12.7716C16.0924 12.7567 15.7024 12.7578 15.3128 12.7578C14.9229 12.7578 14.2893 12.9065 13.7537 13.499C13.2176 14.0922 11.707 15.5255 11.707 18.4406C11.707 21.3558 13.8024 24.1733 14.0945 24.569C14.3869 24.964 18.1396 31.1377 24.0829 33.5128C29.0223 35.4866 30.0275 35.094 31.0995 34.995C32.1717 34.8964 34.5591 33.5621 35.0462 32.1785C35.5336 30.795 35.5336 29.6092 35.3875 29.3614C35.2414 29.1145 34.8514 28.9662 34.2667 28.67C33.6819 28.3738 30.807 26.9402 30.2711 26.7424C29.735 26.5448 29.3452 26.4462 28.9553 27.0395C28.5653 27.6319 27.4456 28.9662 27.1043 29.3614C26.7634 29.7575 26.4221 29.8068 25.8375 29.5104C25.2524 29.2131 23.3693 28.5882 21.1351 26.5697C19.3969 24.9991 18.2233 23.0596 17.8822 22.4663C17.5411 21.8739 17.8457 21.5528 18.1389 21.2576C18.4016 20.9921 18.7238 20.5656 19.0164 20.2198C19.308 19.8737 19.4053 19.6269 19.6003 19.2317C19.7954 18.8362 19.6978 18.4901 19.5518 18.1937C19.4053 17.8974 18.269 14.9669 17.7491 13.7954Z" fill="white"/>
</g>
<defs>
<linearGradient id="paint0_linear_2250_62547" x1="2269.42" y1="4619.34" x2="2269.42" y2="0.828125" gradientUnits="userSpaceOnUse">
<stop stop-color="#1FAF38"/>
<stop offset="1" stop-color="#60D669"/>
</linearGradient>
<linearGradient id="paint1_linear_2250_62547" x1="2350" y1="4784.13" x2="2350" y2="0" gradientUnits="userSpaceOnUse">
<stop stop-color="#F9F9F9"/>
<stop offset="1" stop-color="white"/>
</linearGradient>
<clipPath id="clip0_2250_62547">
<rect width="47" height="48" fill="white"/>
</clipPath>
</defs>
</svg>
